<svg width="16" height="16" viewBox="0 0 16 16" fill="none" xmlns="http://www.w3.org/2000/svg">
<path d="M15.83 8.18008C15.83 7.65342 15.7833 7.15341 15.7033 6.66675H8.16998V9.67342H12.4833C12.29 10.6601 11.7233 11.4934 10.8833 12.0601V14.0601H13.4566C14.9633 12.6667 15.83 10.6134 15.83 8.18008Z" fill="#1D1F21"/>
<path d="M8.16997 15.9999C10.33 15.9999 12.1366 15.2799 13.4566 14.0599L10.8833 12.0599C10.1633 12.5399 9.24997 12.8333 8.16997 12.8333C6.0833 12.8333 4.31664 11.4266 3.6833 9.52661H1.02997V11.5866C2.3433 14.1999 5.0433 15.9999 8.16997 15.9999Z" fill="#1D1F21"/>
<path d="M3.68332 9.52666C3.51665 9.04666 3.42998 8.53333 3.42998 7.99999C3.42998 7.46666 3.52332 6.95333 3.68332 6.47333V4.41333H1.02998C0.483316 5.49333 0.169983 6.70666 0.169983 7.99999C0.169983 9.29333 0.483316 10.5067 1.02998 11.5867L3.68332 9.52666Z" fill="#1D1F21"/>
<path d="M8.16997 3.16667C9.34997 3.16667 10.4033 3.57334 11.2366 4.36667L13.5166 2.08667C12.1366 0.793334 10.33 0 8.16997 0C5.0433 0 2.3433 1.8 1.02997 4.41334L3.6833 6.47334C4.31664 4.57334 6.0833 3.16667 8.16997 3.16667Z" fill="#1D1F21"/>
</svg>
