<svg width="76" height="27" viewBox="0 0 76 27" fill="none" xmlns="http://www.w3.org/2000/svg">
<path fill-rule="evenodd" clip-rule="evenodd" d="M42.9351 0H46.5351V15.24C46.5351 16.32 46.6071 17.112 46.6311 17.376H43.1271C43.1031 17.232 43.0311 16.704 43.0311 16.224C42.4791 17.04 41.2791 17.64 39.8391 17.64C36.4791 17.64 33.9351 15.048 33.9351 11.376C33.9351 7.824 36.3351 5.16 39.7191 5.16C41.7591 5.16 42.6471 5.928 42.9351 6.384V0ZM40.2951 8.448C38.8791 8.448 37.6071 9.408 37.6071 11.4C37.6071 13.368 38.8791 14.376 40.2951 14.376C41.7111 14.376 42.9831 13.368 42.9831 11.4C42.9831 9.408 41.7111 8.448 40.2951 8.448Z" fill="#7D8791"/>
<path fill-rule="evenodd" clip-rule="evenodd" d="M10.9727 17.712C8.35669 17.712 6.84469 15.984 6.84469 14.088C6.84469 11.976 8.40469 10.776 10.3727 10.488L13.1807 10.056C13.8287 9.96 14.0447 9.648 14.0447 9.24C14.0447 8.544 13.4447 7.944 12.2927 7.944C11.0207 7.944 10.3247 8.808 10.2527 9.696L7.08469 9.048C7.22869 7.344 8.81269 5.088 12.3167 5.088C16.1807 5.088 17.5967 7.248 17.5967 9.696V15.528C17.5967 16.464 17.7167 17.256 17.7407 17.376H14.4527C14.4287 17.28 14.3327 16.848 14.3327 16.032C13.7087 17.04 12.5567 17.712 10.9727 17.712ZM10.4447 13.848C10.4447 14.472 10.8527 15.072 11.8607 15.072C12.9407 15.072 14.0447 14.544 14.0447 12.696V12.168L11.7887 12.528C11.0207 12.648 10.4447 13.008 10.4447 13.848Z" fill="#7D8791"/>
<path d="M11.136 20.752V24.376H0V5.36H3.792V20.752H11.136Z" fill="#7D8791"/>
<path d="M28.2296 17.376H31.7336C31.7096 17.184 31.6136 16.32 31.6136 15.24V5.448H27.9656V12.24C27.9656 13.44 27.1976 14.28 25.9736 14.28C24.6776 14.28 24.0536 13.368 24.0536 12.216V5.448H20.4056V12.984C20.4056 15.528 22.0376 17.64 24.9416 17.64C26.1416 17.64 27.5096 17.208 28.1336 16.176C28.1336 16.488 28.1816 17.16 28.2296 17.376Z" fill="#7D8791"/>
<path fill-rule="evenodd" clip-rule="evenodd" d="M57.6225 13.08C57.2865 14.016 56.5425 14.64 55.2225 14.64C53.8065 14.64 52.5825 13.68 52.5105 12.336H60.8145C60.8385 12.264 60.8865 11.712 60.8865 11.208C60.8865 7.368 58.6065 5.088 54.9105 5.088C51.8145 5.088 48.9585 7.536 48.9585 11.376C48.9585 15.384 51.8865 17.736 55.1745 17.736C58.1985 17.736 60.0945 16.008 60.6705 13.944L57.6225 13.08ZM52.5825 9.984C52.6545 9.096 53.4225 7.968 54.9585 7.968C56.6865 7.968 57.3105 9.072 57.3585 9.984H52.5825Z" fill="#7D8791"/>
<path fill-rule="evenodd" clip-rule="evenodd" d="M71.3648 0H74.9648V15.24C74.9648 16.32 75.0368 17.112 75.0608 17.376H71.5568C71.5328 17.232 71.4608 16.704 71.4608 16.224C70.9088 17.04 69.7088 17.64 68.2688 17.64C64.9088 17.64 62.3648 15.048 62.3648 11.376C62.3648 7.824 64.7647 5.16 68.1488 5.16C70.1888 5.16 71.0768 5.928 71.3648 6.384V0ZM68.7248 8.448C67.3088 8.448 66.0368 9.408 66.0368 11.4C66.0368 13.368 67.3088 14.376 68.7248 14.376C70.1408 14.376 71.4128 13.368 71.4128 11.4C71.4128 9.408 70.1408 8.448 68.7248 8.448Z" fill="#7D8791"/>
<path d="M17.6275 19.8395C17.4779 19.3789 16.8261 19.3789 16.6765 19.8395L16.3662 20.7944C16.2993 21.0005 16.1073 21.1399 15.8907 21.1399H14.8866C14.4023 21.1399 14.2009 21.7597 14.5927 22.0444L15.405 22.6346C15.5803 22.7619 15.6536 22.9876 15.5867 23.1936L15.2764 24.1486C15.1267 24.6092 15.654 24.9923 16.0458 24.7076L16.8581 24.1174C17.0334 23.9901 17.2707 23.9901 17.4459 24.1174L18.2582 24.7076C18.65 24.9923 19.1773 24.6092 19.0276 24.1486L18.7173 23.1936C18.6504 22.9876 18.7237 22.7619 18.899 22.6346L19.7113 22.0444C20.1031 21.7597 19.9017 21.1399 19.4174 21.1399H18.4133C18.1967 21.1399 18.0047 21.0005 17.9378 20.7944L17.6275 19.8395Z" fill="#7D8791"/>
<path d="M29.6275 19.8395C29.4779 19.3789 28.8261 19.3789 28.6765 19.8395L28.3662 20.7944C28.2993 21.0005 28.1073 21.1399 27.8907 21.1399H26.8866C26.4023 21.1399 26.2009 21.7597 26.5927 22.0444L27.405 22.6346C27.5803 22.7619 27.6536 22.9876 27.5867 23.1936L27.2764 24.1486C27.1267 24.6092 27.654 24.9923 28.0458 24.7076L28.8581 24.1174C29.0334 23.9901 29.2706 23.9901 29.4459 24.1174L30.2582 24.7076C30.65 24.9923 31.1773 24.6092 31.0276 24.1486L30.7173 23.1936C30.6504 22.9876 30.7237 22.7619 30.899 22.6346L31.7113 22.0444C32.1031 21.7597 31.9017 21.1399 31.4174 21.1399H30.4133C30.1967 21.1399 30.0047 21.0005 29.9378 20.7944L29.6275 19.8395Z" fill="#7D8791"/>
<path d="M40.6765 19.8395C40.8261 19.3789 41.4779 19.3789 41.6275 19.8395L41.9378 20.7944C42.0047 21.0005 42.1967 21.1399 42.4133 21.1399H43.4174C43.9017 21.1399 44.1031 21.7597 43.7113 22.0444L42.899 22.6346C42.7237 22.7619 42.6504 22.9876 42.7173 23.1936L43.0276 24.1486C43.1773 24.6092 42.6501 24.9923 42.2582 24.7076L41.4459 24.1174C41.2706 23.9901 41.0334 23.9901 40.8581 24.1174L40.0458 24.7076C39.654 24.9923 39.1267 24.6092 39.2764 24.1486L39.5867 23.1936C39.6536 22.9876 39.5803 22.7619 39.405 22.6346L38.5927 22.0444C38.2009 21.7597 38.4023 21.1399 38.8866 21.1399H39.8907C40.1073 21.1399 40.2993 21.0005 40.3662 20.7944L40.6765 19.8395Z" fill="#7D8791"/>
<path d="M53.6275 19.8395C53.4779 19.3789 52.8261 19.3789 52.6765 19.8395L52.3662 20.7944C52.2993 21.0005 52.1073 21.1399 51.8907 21.1399H50.8866C50.4023 21.1399 50.2009 21.7597 50.5927 22.0444L51.405 22.6346C51.5803 22.7619 51.6536 22.9876 51.5867 23.1936L51.2764 24.1486C51.1267 24.6092 51.6539 24.9923 52.0458 24.7076L52.8581 24.1174C53.0334 23.9901 53.2706 23.9901 53.4459 24.1174L54.2582 24.7076C54.65 24.9923 55.1773 24.6092 55.0276 24.1486L54.7173 23.1936C54.6504 22.9876 54.7237 22.7619 54.899 22.6346L55.7113 22.0444C56.1031 21.7597 55.9017 21.1399 55.4174 21.1399H54.4133C54.1967 21.1399 54.0047 21.0005 53.9378 20.7944L53.6275 19.8395Z" fill="#7D8791"/>
<path d="M64.6765 19.8395C64.8261 19.3789 65.4779 19.3789 65.6275 19.8395L65.9378 20.7944C66.0047 21.0005 66.1967 21.1399 66.4133 21.1399H67.4174C67.9017 21.1399 68.1031 21.7597 67.7113 22.0444L66.899 22.6346C66.7237 22.7619 66.6504 22.9876 66.7173 23.1936L67.0276 24.1486C67.1773 24.6092 66.65 24.9923 66.2582 24.7076L65.4459 24.1174C65.2706 23.9901 65.0333 23.9901 64.8581 24.1174L64.0458 24.7076C63.6539 24.9923 63.1267 24.6092 63.2764 24.1486L63.5867 23.1936C63.6536 22.9876 63.5803 22.7619 63.405 22.6346L62.5927 22.0444C62.2009 21.7597 62.4023 21.1399 62.8866 21.1399H63.8907C64.1073 21.1399 64.2993 21.0005 64.3662 20.7944L64.6765 19.8395Z" fill="#7D8791"/>
</svg>
