<svg width="16" height="16" viewBox="0 0 16 16" fill="none" xmlns="http://www.w3.org/2000/svg">
<path fill-rule="evenodd" clip-rule="evenodd" d="M3.99557 12.9313C1.7911 12.9313 0.00413389 11.1443 0.00413389 8.93922C0.00342001 8.38379 0.11888 7.83435 0.343097 7.3262C0.567315 6.81805 0.89533 6.36243 1.30607 5.98861L0 4.56735H2.90347C4.40398 3.54611 6.17697 3 7.99193 3C9.80689 3 11.5799 3.54611 13.0804 4.56735H15.9758L14.6697 5.98861C15.0806 6.36234 15.4087 6.8179 15.6331 7.32602C15.8574 7.83413 15.973 8.38356 15.9724 8.93902C15.9724 11.1437 14.1839 12.9311 11.9792 12.9311C10.9733 12.9326 10.0043 12.5527 9.26729 11.868L7.9878 13.2597L6.7083 11.8672C5.97126 12.5524 5.00187 12.9327 3.99557 12.9313ZM14.2247 10.4402C14.5215 9.99593 14.68 9.47357 14.68 8.93922C14.68 8.22267 14.3954 7.53546 13.8888 7.02879C13.3822 6.52211 12.6951 6.23746 11.9786 6.23746C11.4444 6.23746 10.9221 6.39592 10.4779 6.69279C10.0336 6.98966 9.68741 7.41162 9.48295 7.9053C9.2785 8.39898 9.22501 8.94221 9.32924 9.4663C9.43347 9.99039 9.69074 10.4718 10.0685 10.8496C10.4463 11.2275 10.9276 11.4848 11.4516 11.5891C11.9756 11.6933 12.5188 11.6398 13.0124 11.4353C13.506 11.2308 13.9279 10.8845 14.2247 10.4402ZM10.9861 4.90578C10.0362 4.50867 9.01675 4.30481 7.98721 4.30609C6.9584 4.30499 5.93967 4.50878 4.99043 4.90558C6.6955 5.55784 7.98858 7.08345 7.98858 8.86125C7.98858 7.08364 9.28127 5.55823 10.9861 4.90578ZM5.49634 6.69279C5.05211 6.39592 4.52984 6.23746 3.99557 6.23746C3.27914 6.23746 2.59205 6.52211 2.08546 7.02879C1.57886 7.53546 1.29426 8.22267 1.29426 8.93922C1.29426 9.47357 1.45269 9.99593 1.74951 10.4402C2.04634 10.8845 2.46822 11.2308 2.96182 11.4353C3.45542 11.6398 3.99857 11.6933 4.52257 11.5891C5.04657 11.4848 5.5279 11.2275 5.90569 10.8496C6.28347 10.4718 6.54075 9.99039 6.64498 9.4663C6.74921 8.94221 6.69571 8.39898 6.49126 7.9053C6.2868 7.41162 5.94057 6.98966 5.49634 6.69279ZM3.99555 10.3555C4.27565 10.3556 4.54946 10.2725 4.78237 10.1169C5.01528 9.9613 5.19682 9.7401 5.30402 9.48129C5.41123 9.22248 5.43929 8.93768 5.38465 8.66292C5.33002 8.38816 5.19515 8.13578 4.99709 7.93768C4.79903 7.73959 4.54668 7.6047 4.27197 7.55005C3.99725 7.49541 3.7125 7.52347 3.45374 7.6307C3.19497 7.73792 2.9738 7.91949 2.81822 8.15243C2.66263 8.38538 2.5796 8.65924 2.57964 8.93939C2.57969 9.31495 2.72889 9.67513 2.99441 9.94069C3.25993 10.2063 3.62004 10.3555 3.99555 10.3555ZM11.9786 10.3556C12.7607 10.3556 13.3947 9.72151 13.3947 8.93929C13.3947 8.15707 12.7607 7.52295 11.9786 7.52295C11.1965 7.52295 10.5625 8.15707 10.5625 8.93929C10.5625 9.72151 11.1965 10.3556 11.9786 10.3556Z" fill="#1D1F21"/>
</svg>
