<svg width="16" height="16" viewBox="0 0 16 16" fill="none" xmlns="http://www.w3.org/2000/svg">
<g clip-path="url(#clip0)">
<path d="M6.70158 11.2729L4.48932 13.9669C4.17806 14.3459 4.32677 14.9183 4.78314 15.0979L6.94596 15.9492C7.41254 16.1328 7.91974 15.7971 7.933 15.2958L8.02625 11.767C8.04505 11.0556 7.15317 10.723 6.70158 11.2729Z" fill="#1D1F21"/>
<path d="M6.33393 8.5948L3.05306 7.41686C2.59144 7.25111 2.10235 7.58356 2.08659 8.07379L2.01193 10.3969C1.9958 10.8981 2.48251 11.2629 2.95904 11.1069L6.31388 10.0085C6.99017 9.78707 7.00365 8.83525 6.33393 8.5948Z" fill="#1D1F21"/>
<path d="M10.0941 8.97288L13.4547 8.04662C13.9275 7.91631 14.1359 7.36287 13.8665 6.953L12.5898 5.01076C12.3144 4.59178 11.7064 4.57374 11.4067 4.97572L9.29641 7.80562C8.871 8.37606 9.40809 9.16199 10.0941 8.97288Z" fill="#1D1F21"/>
<path d="M7.66032 0.897267C7.68706 0.316025 7.13935 -0.12246 6.57801 0.0308391L3.91794 0.757301C3.34408 0.914015 3.10036 1.59325 3.44365 2.07907L6.49626 7.36769C6.52105 7.41063 6.54837 7.45224 6.58051 7.49003C7.03258 8.02129 7.88127 7.82443 8.09047 7.20253C8.12804 7.09081 8.13862 6.97174 8.12936 6.85421L7.66032 0.897267Z" fill="#1D1F21"/>
<path d="M13.4776 11.3904L10.103 10.3542C9.42277 10.1453 8.86312 10.9154 9.27182 11.4979L11.2738 14.3516C11.5555 14.7531 12.1469 14.7633 12.4422 14.3718L13.8423 12.5165C14.1443 12.1163 13.9569 11.5376 13.4776 11.3904Z" fill="#1D1F21"/>
</g>
<defs>
<clipPath id="clip0">
<rect width="16" height="16" fill="white"/>
</clipPath>
</defs>
</svg>
